<svg xmlns="http://www.w3.org/2000/svg" width="24" height="24" viewBox="0 0 24 24" version="1.1">
	<path d="M 7.110 3.396 C -1.559 8.201, 2.068 22, 12 22 C 17.067 22, 22 17.115, 22 12.097 C 22 4.589, 13.703 -0.259, 7.110 3.396 M 5.923 5.923 C 3.928 7.918, 3 9.848, 3 12 C 3 16.302, 7.698 21, 12 21 C 14.152 21, 16.082 20.072, 18.077 18.077 C 22.007 14.147, 22.007 9.853, 18.077 5.923 C 14.147 1.993, 9.853 1.993, 5.923 5.923 M 11.953 9.250 L 14.349 12 11.953 14.750 L 9.556 17.500 12.505 14.750 L 15.455 12 12.505 9.250 L 9.556 6.500 11.953 9.250" stroke="none" fill="black" fill-rule="evenodd"/>
</svg>