<svg xmlns="http://www.w3.org/2000/svg" width="48" height="48" viewBox="0 0 48 48" version="1.1">
	<path d="M 7.311 6.250 C 5.368 8.848, 3.806 17.769, 4.926 19.862 C 5.517 20.966, 6 26.103, 6 31.279 C 6 44.225, 5.678 44, 24.174 44 C 42.318 44, 42 44.230, 42 31.106 C 42 26.025, 42.483 20.966, 43.074 19.862 C 44.194 17.769, 42.632 8.848, 40.689 6.250 C 39.360 4.472, 8.640 4.472, 7.311 6.250 M 8.341 12.750 C 7.645 15.715, 7.571 18.153, 8.142 19.238 C 9.366 21.561, 13.301 22.445, 15.998 21.001 C 17.671 20.106, 18.861 20.114, 21.091 21.038 C 23.360 21.978, 24.640 21.978, 26.909 21.038 C 29.139 20.114, 30.329 20.106, 32.002 21.001 C 34.699 22.445, 38.634 21.561, 39.858 19.238 C 40.429 18.153, 40.355 15.715, 39.659 12.750 L 38.545 8 24 8 L 9.455 8 8.341 12.750 M 12 11.500 C 12 12.325, 12.675 13, 13.500 13 C 14.325 13, 15 12.325, 15 11.500 C 15 10.675, 14.325 10, 13.500 10 C 12.675 10, 12 10.675, 12 11.500 M 17 11.500 C 17 12.325, 17.675 13, 18.500 13 C 19.325 13, 20 12.325, 20 11.500 C 20 10.675, 19.325 10, 18.500 10 C 17.675 10, 17 10.675, 17 11.500 M 16.541 24.237 C 15.594 24.767, 13.493 25.006, 11.872 24.768 L 8.925 24.335 9.212 32.407 C 9.453 39.163, 9.785 40.532, 11.250 40.812 C 12.773 41.103, 13 40.294, 13 34.573 L 13 28 24 28 L 35 28 35 34.573 C 35 40.294, 35.227 41.103, 36.750 40.812 C 38.215 40.532, 38.547 39.163, 38.788 32.407 L 39.075 24.335 36.128 24.768 C 34.507 25.006, 32.406 24.767, 31.459 24.237 C 30.331 23.606, 28.747 23.647, 26.868 24.356 C 24.810 25.133, 23.190 25.133, 21.132 24.356 C 19.253 23.647, 17.669 23.606, 16.541 24.237 M 16 36 C 16 40.889, 16.067 41, 19 41 C 21.933 41, 22 40.889, 22 36 C 22 31.111, 21.933 31, 19 31 C 16.067 31, 16 31.111, 16 36 M 26 36 C 26 40.889, 26.067 41, 29 41 C 31.933 41, 32 40.889, 32 36 C 32 31.111, 31.933 31, 29 31 C 26.067 31, 26 31.111, 26 36" stroke="none" fill="black" fill-rule="evenodd"/>
</svg>