<svg xmlns="http://www.w3.org/2000/svg" width="24" height="24" viewBox="0 0 24 24" version="1.1">
	<path d="M 7.110 3.396 C -1.559 8.201, 2.068 22, 12 22 C 17.067 22, 22 17.115, 22 12.097 C 22 4.589, 13.703 -0.259, 7.110 3.396 M 9.389 6.430 C 8.393 9.025, 9.788 11.169, 12.246 10.820 C 15.450 10.365, 15.450 5.635, 12.246 5.180 C 10.893 4.988, 9.750 5.488, 9.389 6.430 M 7.750 15.080 C 5.244 16.540, 5.576 17.582, 9 19 C 11.391 19.990, 12.609 19.990, 15 19 C 18.482 17.558, 18.771 16.483, 16.066 15.035 C 13.635 13.734, 10.027 13.754, 7.750 15.080" stroke="none" fill="black" fill-rule="evenodd"/>
</svg>